<svg width="520" height="48" viewBox="0 0 520 48" fill="none"
     xmlns="http://www.w3.org/2000/svg" role="img" aria-label="Project under construction">
  <defs>
    <linearGradient id="bg" x1="0" y1="0" x2="520" y2="48" gradientUnits="userSpaceOnUse">
      <stop stop-color="#071C3B"/>
      <stop offset="0.58" stop-color="#0A2A57"/>
      <stop offset="1" stop-color="#06162F"/>
    </linearGradient>

    <linearGradient id="gold" x1="0" y1="0" x2="0" y2="48" gradientUnits="userSpaceOnUse">
      <stop stop-color="#FFE08A"/>
      <stop offset="0.45" stop-color="#E6B84A"/>
      <stop offset="1" stop-color="#B98219"/>
    </linearGradient>

    <linearGradient id="shine" x1="0" y1="0" x2="110" y2="0" gradientUnits="userSpaceOnUse">
      <stop stop-color="#FFFFFF" stop-opacity="0"/>
      <stop offset="0.5" stop-color="#FFFFFF" stop-opacity="0.16"/>
      <stop offset="1" stop-color="#FFFFFF" stop-opacity="0"/>
    </linearGradient>

    <clipPath id="clip">
      <rect x="1" y="1" width="518" height="46" rx="14"/>
    </clipPath>

    <filter id="softGlow" x="-40%" y="-40%" width="180%" height="180%">
      <feGaussianBlur stdDeviation="1.4" result="blur"/>
      <feMerge>
        <feMergeNode in="blur"/>
        <feMergeNode in="SourceGraphic"/>
      </feMerge>
    </filter>
  </defs>

  <rect x="1" y="1" width="518" height="46" rx="14" fill="url(#bg)" stroke="url(#gold)" stroke-width="2"/>

  <g clip-path="url(#clip)">
    <rect x="-120" y="0" width="100" height="48" fill="url(#shine)" transform="skewX(-18)">
      <animate attributeName="x" values="-120;620" dur="3.4s" repeatCount="indefinite"/>
    </rect>
  </g>

  <!-- rotating gear icon with 8 teeth -->
  <g transform="translate(28 8)" filter="url(#softGlow)">
    <g>
      <animateTransform attributeName="transform" type="rotate" from="0 16 16" to="360 16 16" dur="3s" repeatCount="indefinite"/>
      <rect x="14.4" y="0.7" width="3.2" height="6.3" rx="1.1" fill="url(#gold)" transform="rotate(0 16 16)"/>
      <rect x="14.4" y="0.7" width="3.2" height="6.3" rx="1.1" fill="url(#gold)" transform="rotate(45 16 16)"/>
      <rect x="14.4" y="0.7" width="3.2" height="6.3" rx="1.1" fill="url(#gold)" transform="rotate(90 16 16)"/>
      <rect x="14.4" y="0.7" width="3.2" height="6.3" rx="1.1" fill="url(#gold)" transform="rotate(135 16 16)"/>
      <rect x="14.4" y="0.7" width="3.2" height="6.3" rx="1.1" fill="url(#gold)" transform="rotate(180 16 16)"/>
      <rect x="14.4" y="0.7" width="3.2" height="6.3" rx="1.1" fill="url(#gold)" transform="rotate(225 16 16)"/>
      <rect x="14.4" y="0.7" width="3.2" height="6.3" rx="1.1" fill="url(#gold)" transform="rotate(270 16 16)"/>
      <rect x="14.4" y="0.7" width="3.2" height="6.3" rx="1.1" fill="url(#gold)" transform="rotate(315 16 16)"/>
      <circle cx="16" cy="16" r="10.2" fill="none" stroke="url(#gold)" stroke-width="4"/>
      <circle cx="16" cy="16" r="3.9" fill="#0A2A57" stroke="#F6D06B" stroke-width="2"/>
    </g>
  </g>

  <rect x="70" y="10" width="1" height="28" rx="0.5" fill="#C99B3B" opacity="0.55"/>

  <text x="88" y="30.5"
        fill="#F7F8FA"
        font-family="Inter, Segoe UI, Arial, sans-serif"
        font-size="14"
        font-weight="700"
        letter-spacing="2.3">
    PROJECT UNDER CONSTRUCTION
  </text>

  <!-- ellipsis moved closer to the last word -->
  <g transform="translate(398 24)" filter="url(#softGlow)">
    <circle cx="0" cy="0" r="2.2" fill="#E7B94E">
      <animate attributeName="opacity" values="0.25;1;0.25" dur="1.2s" begin="0s" repeatCount="indefinite"/>
    </circle>
    <circle cx="8.5" cy="0" r="2.2" fill="#E7B94E">
      <animate attributeName="opacity" values="0.25;1;0.25" dur="1.2s" begin="0.2s" repeatCount="indefinite"/>
    </circle>
    <circle cx="17" cy="0" r="2.2" fill="#E7B94E">
      <animate attributeName="opacity" values="0.25;1;0.25" dur="1.2s" begin="0.4s" repeatCount="indefinite"/>
    </circle>
  </g>
</svg>
